<?xml version="1.0" encoding="utf-8"?>
<!-- Generator: Adobe Illustrator 17.0.0, SVG Export Plug-In . SVG Version: 6.00 Build 0)  -->
<!DOCTYPE svg PUBLIC "-//W3C//DTD SVG 1.1//EN" "http://www.w3.org/Graphics/SVG/1.1/DTD/svg11.dtd">
<svg version="1.1" id="Capa_1" xmlns="http://www.w3.org/2000/svg" xmlns:xlink="http://www.w3.org/1999/xlink" x="0px" y="0px"
	 width="512px" height="366.933px" viewBox="0 72.533 512 366.933" enable-background="new 0 72.533 512 366.933"
	 xml:space="preserve">
<g>
	<polygon fill="#F1D39C" points="512,428.664 512,84.855 336.913,260.574 	"/>
	<polygon fill="#F1D39C" points="0,84.83 0,428.664 175.095,260.565 	"/>
	<path fill="#F1D39C" d="M11.836,72.533l179.217,179.883c1.033,0.435,4.019,3.541,4.412,4.429l50.697,50.884
		c5.419,5.043,14.268,5.035,19.908-0.213l50.441-50.628c0.393-0.896,3.413-4.036,4.454-4.471L500.181,72.533H11.836z"/>
	<path fill="#F1D39C" d="M324.864,272.674l-46.933,47.104c-6.229,5.803-14.14,8.695-22.016,8.695
		c-7.799,0-15.556-2.833-21.615-8.474l-47.155-47.326L13.389,439.467h485.222L324.864,272.674z"/>
</g>
</svg>
