
<?xml version="1.0" standalone="no"?>
<!DOCTYPE svg PUBLIC "-//W3C//DTD SVG 20010904//EN"
 "http://www.w3.org/TR/2001/REC-SVG-20010904/DTD/svg10.dtd">
<svg version="1.0" xmlns="http://www.w3.org/2000/svg"
 width="928.000000pt" height="269.000000pt" viewBox="0 0 928.000000 269.000000"
 preserveAspectRatio="xMidYMid meet">

<g transform="translate(0.000000,269.000000) scale(0.100000,-0.100000)"
fill="#000000" stroke="none">
<path d="M5496 1715 c-43 -46 -76 -89 -74 -95 1 -5 71 -84 153 -176 83 -91
150 -170 150 -174 0 -5 -54 -69 -121 -142 -66 -73 -137 -152 -157 -175 l-38
-41 78 -86 c43 -47 83 -86 89 -86 6 0 95 91 196 203 102 111 208 228 237 260
29 31 51 63 48 70 -6 15 -465 521 -476 525 -4 1 -43 -36 -85 -83z"/>
<path d="M5212 1404 l-122 -136 49 -57 c27 -31 85 -94 128 -140 l78 -83 110
119 c61 65 118 128 129 140 18 22 18 22 -105 157 -68 75 -128 136 -134 136 -5
0 -65 -61 -133 -136z"/>
</g>
</svg>
